<svg width="48" height="47" viewBox="0 0 48 47" fill="none" xmlns="http://www.w3.org/2000/svg">
<path d="M28.2187 6.5625C28.2187 6.18954 28.3669 5.83186 28.6306 5.56813C28.8943 5.30441 29.252 5.15625 29.625 5.15625H31.0312V3.75C31.0312 3.37704 31.1794 3.01936 31.4431 2.75563C31.7068 2.49191 32.0645 2.34375 32.4375 2.34375C32.8104 2.34375 33.1681 2.49191 33.4318 2.75563C33.6955 3.01936 33.8437 3.37704 33.8437 3.75V5.15625H35.25C35.6229 5.15625 35.9806 5.30441 36.2443 5.56813C36.508 5.83186 36.6562 6.18954 36.6562 6.5625C36.6562 6.93546 36.508 7.29315 36.2443 7.55687C35.9806 7.82059 35.6229 7.96875 35.25 7.96875H33.8437V9.375C33.8437 9.74796 33.6955 10.1056 33.4318 10.3694C33.1681 10.6331 32.8104 10.7813 32.4375 10.7813C32.0645 10.7813 31.7068 10.6331 31.4431 10.3694C31.1794 10.1056 31.0312 9.74796 31.0312 9.375V7.96875H29.625C29.252 7.96875 28.8943 7.82059 28.6306 7.55687C28.3669 7.29315 28.2187 6.93546 28.2187 6.5625ZM36.4998 13.0055C36.6039 13.6652 36.6563 14.3321 36.6562 15C36.6569 16.7532 36.2925 18.4873 35.5861 20.0918C34.8797 21.6964 33.8469 23.1362 32.5535 24.3197C32.4957 24.382 32.4323 24.4389 32.3641 24.4897C30.0557 26.53 27.0812 27.6561 24.0004 27.6562C20.9196 27.6563 17.945 26.5304 15.6364 24.4903C15.5678 24.4392 15.504 24.3818 15.4458 24.319C13.5666 22.5963 12.2517 20.3461 11.6735 17.8633C11.0952 15.3804 11.2806 12.7808 12.2054 10.4051C13.1301 8.02943 14.7511 5.98859 16.8558 4.55008C18.9604 3.11158 21.4506 2.34253 24 2.34375C24.6679 2.34375 25.3347 2.39605 25.9945 2.5002C26.3629 2.55855 26.693 2.76085 26.9122 3.06259C27.1314 3.36434 27.2218 3.7408 27.1634 4.10918C27.1051 4.47756 26.9028 4.80767 26.601 5.02689C26.2993 5.2461 25.9228 5.33648 25.5544 5.27813C25.0403 5.19693 24.5205 5.15618 24 5.15625C22.1519 5.15469 20.3409 5.67381 18.7743 6.65411C17.2077 7.63441 15.949 9.03623 15.1424 10.6989C14.3358 12.3616 14.014 14.2179 14.2138 16.0551C14.4135 17.8923 15.1269 19.636 16.272 21.0865C17.1825 19.9277 18.343 18.9895 19.6668 18.342C18.8215 17.487 18.2479 16.4011 18.0183 15.2209C17.7887 14.0407 17.9134 12.819 18.3766 11.7095C18.8399 10.6 19.621 9.65238 20.6216 8.98582C21.6222 8.31926 22.7976 7.9636 24 7.9636C25.2023 7.9636 26.3777 8.31926 27.3783 8.98582C28.3789 9.65238 29.16 10.6 29.6233 11.7095C30.0865 12.819 30.2112 14.0407 29.9816 15.2209C29.752 16.4011 29.1784 17.487 28.3331 18.342C29.6569 18.9895 30.8174 19.9277 31.7279 21.0865C33.0996 19.3544 33.8452 17.2094 33.8437 15C33.8438 14.4795 33.803 13.9598 33.7218 13.4456C33.6634 13.0773 33.7538 12.7008 33.973 12.399C34.1922 12.0972 34.5223 11.8949 34.8907 11.8365C35.259 11.7781 35.6355 11.8685 35.9373 12.0877C36.239 12.3069 36.4414 12.637 36.4998 13.0054V13.0055ZM24 17.3438C24.6489 17.3438 25.2833 17.1513 25.8229 16.7908C26.3625 16.4302 26.7831 15.9178 27.0314 15.3182C27.2798 14.7186 27.3448 14.0589 27.2182 13.4224C27.0915 12.7859 26.779 12.2012 26.3201 11.7423C25.8613 11.2834 25.2766 10.9709 24.6401 10.8443C24.0036 10.7177 23.3438 10.7827 22.7443 11.031C22.1447 11.2794 21.6322 11.6999 21.2717 12.2395C20.9111 12.7791 20.7187 13.4135 20.7187 14.0625C20.7197 14.9324 21.0657 15.7665 21.6808 16.3816C22.296 16.9968 23.13 17.3428 24 17.3438ZM24 24.8438C26.0339 24.8453 28.0178 24.2131 29.6758 23.0351C29.0226 22.1429 28.1682 21.4173 27.182 20.9171C26.1959 20.4169 25.1057 20.1563 24 20.1563C22.8942 20.1563 21.804 20.4169 20.8179 20.9171C19.8317 21.4173 18.9773 22.1429 18.3241 23.0351C19.9821 24.2131 21.966 24.8453 24 24.8438Z" fill="#3D556E"/>
<path d="M6.504 40.412V38.42H9.732V40.412H6.504ZM2.7 40.412C2.736 39.968 2.748 39.524 2.748 39.128V38.42H5.616V40.412H2.7ZM5.616 35.66V37.58H2.748V35.66H5.616ZM9.732 37.58H6.504V35.66H9.732V37.58ZM10.608 34.808H1.872V39.128C1.872 40.796 1.752 42.908 0.432 44.396C0.624 44.504 0.984 44.804 1.116 44.984C2.028 43.964 2.436 42.596 2.616 41.264H5.616V44.804H6.504V41.264H9.732V43.7C9.732 43.928 9.648 44 9.408 44.012C9.192 44.012 8.376 44.024 7.536 43.988C7.656 44.228 7.8 44.612 7.836 44.852C8.964 44.864 9.66 44.852 10.068 44.708C10.452 44.552 10.608 44.288 10.608 43.712V34.808ZM14.988 40.28C15.036 39.776 15.048 39.308 15.048 38.864V37.892H21.132V40.28H14.988ZM15.048 37.064V35.888C17.364 35.6 19.92 35.192 21.66 34.664L20.928 33.992C19.38 34.496 16.572 34.964 14.16 35.228V38.864C14.16 40.568 14.004 42.8 12.48 44.348C12.684 44.456 13.02 44.78 13.164 44.948C14.208 43.904 14.676 42.488 14.892 41.12H21.132V41.756H22.02V37.064H15.048ZM27.456 35.54L27 35.888C27.384 36.26 27.876 36.764 28.116 37.076L28.704 36.584C28.476 36.308 28.032 35.864 27.66 35.54H29.928V34.82H26.832C26.964 34.58 27.072 34.34 27.18 34.1L26.388 33.884C25.98 34.88 25.296 35.84 24.552 36.5C24.744 36.644 25.056 36.944 25.176 37.088C25.608 36.68 26.04 36.14 26.424 35.54H27.456ZM33.228 42.668V43.82H27.456V42.668H33.228ZM32.604 39.44V40.46H27.456V39.44H32.604ZM27.456 41.144H33.48V38.756H26.568V44.924H27.456V44.516H33.228V44.9H34.104V41.972H27.456V41.144ZM29.292 36.56C29.424 36.788 29.544 37.064 29.652 37.316H25.248V39.272H26.112V38.024H34.044V39.272H34.932V37.316H30.564C30.456 37.016 30.252 36.668 30.084 36.392L29.292 36.56ZM31.764 34.832C31.896 34.592 32.004 34.34 32.1 34.088L31.284 33.884C30.984 34.7 30.444 35.48 29.796 35.996C30 36.116 30.324 36.392 30.468 36.524C30.78 36.26 31.068 35.912 31.344 35.54H32.712L32.196 35.96C32.64 36.332 33.192 36.848 33.468 37.184L34.068 36.656C33.792 36.344 33.264 35.888 32.832 35.54H35.412V34.832H31.764ZM40.236 41.588L38.928 42.02V39.044H40.128V38.216H38.928V35.612H40.308V34.772H36.588V35.612H38.076V38.216H36.72V39.044H38.076V42.284C37.464 42.488 36.912 42.656 36.468 42.788L36.672 43.688C37.74 43.34 39.108 42.872 40.392 42.44L40.236 41.588ZM41.712 37.544H43.536V39.068H41.712V37.544ZM41.712 35.288H43.536V36.8H41.712V35.288ZM46.14 36.8H44.304V35.288H46.14V36.8ZM46.14 39.068H44.304V37.544H46.14V39.068ZM44.376 43.712V42.068H47.172V41.252H44.376V39.848H46.992V34.508H40.896V39.848H43.476V41.252H40.752V42.068H43.476V43.712H39.828V44.528H47.556V43.712H44.376Z" fill="#3D556E"/>
</svg>
