<svg width="50" height="56" viewBox="0 0 50 56" fill="none" xmlns="http://www.w3.org/2000/svg">
<path d="M20.5197 45.0957C19.5056 45.0409 3.32025 45.0957 3.32025 45.0957V38.9052C3.32025 38.9052 19.3171 39.0215 20.5197 38.9052C20.5197 42.0003 20.5197 45.0957 20.5197 45.0957Z" fill="#353E49"/>
<path d="M21.5669 54.8395H3.20999C1.48743 54.8395 0.0911255 53.4537 0.0911255 51.744V32.2565C0.0911255 30.5469 1.48743 29.1548 3.20999 29.1611C20.6399 29.2243 21.4365 29.1205 21.4365 29.1205C21.4365 29.1205 21.4704 34.1956 21.4085 35.4033C19.8583 35.2954 6.32887 35.352 6.32887 35.352V48.6489C6.32887 48.6489 20.6783 48.845 21.5669 48.5368C21.5924 51.6541 21.5669 54.8395 21.5669 54.8395Z" fill="#353E49"/>
<path d="M49.929 55.1136C49.929 55.1136 47.3504 55.0363 45.8793 54.8829C41.9509 54.4733 38.96 52.796 37.1458 49.6079L33.7105 43.5711L38.9719 40.6218C38.9719 40.6218 41.033 44.158 42.01 45.6451C42.7985 46.8453 44.762 48.1304 46.1751 48.3133C49.2345 48.7093 49.8535 48.4827 49.8535 48.4827C49.8538 52.1699 49.929 55.1136 49.929 55.1136Z" fill="#EE7836"/>
<path d="M24.0474 29.0744C24.0474 29.0744 26.2543 29.1285 27.7251 29.2819C31.6535 29.6914 34.7636 31.4326 36.5778 34.6207L40.0131 40.6575L34.7279 43.62C34.7279 43.62 32.6389 39.946 31.7587 38.5488C30.9485 37.2626 29.5956 35.9146 27.4691 35.7327C24.6202 35.4891 24.0404 35.648 24.0404 35.648C24.0404 31.9612 24.0474 29.0744 24.0474 29.0744Z" fill="#EE7836"/>
<path d="M34.3986 40.7342C33.5793 42.4497 32.8893 43.8255 31.3682 45.7725C30.4856 46.9022 28.8288 48.3293 27.1737 48.4428C24.6724 48.6142 23.7901 48.4567 23.7901 48.4567V54.8336H27.124C30.8048 54.8336 34.2196 52.8598 36.0362 49.6828C36.0362 49.6828 36.7817 48.2391 38.5746 45.0614L34.3986 40.7342Z" fill="#EE7836"/>
<path d="M38.7672 44.6626C39.7114 42.9894 40.8926 40.9306 42.2984 38.5436C43.0254 37.3094 44.1671 36.0176 46.0781 35.7511C48.4337 35.4224 49.9282 35.6033 49.9282 35.6033C49.9282 35.6033 49.9289 32.7664 49.9999 29.2198C49.9999 29.2198 48.3434 29.1896 46.2806 29.3572C42.6124 29.6553 39.4211 31.0956 37.352 34.8206C37.352 34.8206 36.4456 36.8249 34.6615 40.0526L38.7672 44.6626Z" fill="#EE7836"/>
<path d="M50 26.9587C50 26.9587 49.566 27.0867 48.7477 27.1017C44.8515 27.1728 41.1997 23.7411 41.1997 19.6103C41.1997 19.6103 41.2889 13.4295 41.1997 10.9435C41.1214 8.7581 39.395 6.90653 37.1916 6.89438C30.7507 6.85829 30.3538 6.97768 30.3538 6.97768C30.3538 6.97768 30.3471 3.90931 30.1552 0.808319H37.2038C42.8349 0.808319 47.4158 5.35482 47.4158 10.9435V18.7823C47.4158 19.8578 47.9865 20.7123 48.7649 20.79C49.5062 20.8639 49.8118 20.8365 49.8118 20.8365C49.8122 20.8348 49.7695 25.4868 50 26.9587Z" fill="#353E49"/>
<path d="M39.3555 21.5986C39.3555 21.5986 38.5424 22.013 36.6552 21.8794C34.7679 21.7458 33.3013 20.5134 33.2926 18.5154C33.2835 16.4622 34.9858 15.151 36.6842 14.9455C39.1488 14.647 41.2347 15.9322 41.2197 18.1659L47.4161 18.1627C47.4161 13.1005 42.9545 8.98196 37.4707 8.98196C34.4962 8.98196 31.6144 9.92319 29.8041 11.6318C27.9231 13.407 26.8873 15.8517 26.8873 18.515C26.8873 23.6827 31.3605 28.0484 36.6552 28.0484C38.3903 28.0484 40.2098 27.7829 41.6064 27.0465C40.6193 25.4587 39.5957 23.0747 39.3555 21.5986Z" fill="#353E49"/>
<path d="M13.7055 26.7358C13.6415 26.7358 13.5877 26.7352 13.5443 26.7341H3.11938C1.39681 26.7341 0.000510542 25.3483 0.000510542 23.6387C0.000510542 23.6387 0.189342 13.3681 0.000510542 3.09544C-0.0309614 1.38616 1.39681 0 3.11938 0H13.5883C13.9041 0 16.7551 0.0485871 19.638 1.73392C22.3764 3.33491 25.6855 6.68301 25.6855 13.5409C25.6855 17.7949 24.3857 21.1489 21.9106 23.5089C18.7574 26.5162 14.7937 26.7358 13.7055 26.7358ZM13.3848 20.545C17.2478 20.3839 19.1015 16.3931 19.1015 13.1838C19.1015 9.98113 17.3713 6.40432 13.2789 6.19122C10.9807 6.07149 6.45121 6.19122 6.45121 6.19122V20.5439C6.45086 20.5436 11.2318 20.6345 13.3848 20.545Z" fill="#353E49"/>
</svg>
