<svg width="48" height="47" viewBox="0 0 48 47" fill="none" xmlns="http://www.w3.org/2000/svg">
<path d="M27.75 13.75H36.5V16.25H27.75V13.75ZM29 18.75H36.5V21.25H29V18.75ZM26.5 8.75H36.5V11.25H26.5V8.75ZM14 23.75H26.5V22.5C26.5 19.0538 23.6962 16.25 20.25 16.25H17.75C14.3038 16.25 11.5 19.0538 11.5 22.5V23.75H14ZM19 15C21.4937 15 23.375 13.1188 23.375 10.625C23.375 8.13125 21.4937 6.25 19 6.25C16.5062 6.25 14.625 8.13125 14.625 10.625C14.625 13.1188 16.5062 15 19 15Z" fill="#3D556E"/>
<path d="M1.836 35.864H10.128V37.28H11.028V35.036H6.756C6.564 34.664 6.3 34.208 6.06 33.86L5.196 34.076C5.376 34.364 5.568 34.724 5.736 35.036H0.96V37.28H1.836V35.864ZM3.336 41.252C4.272 40.94 5.172 40.568 6.012 40.112C6.876 40.58 7.824 40.952 8.844 41.252H3.336ZM3.66 43.748V42.008H8.4V43.748H3.66ZM4.284 37.664H7.908C7.416 38.216 6.768 38.708 6.024 39.164C5.316 38.732 4.704 38.252 4.236 37.712L4.284 37.664ZM8.676 36.92L8.52 36.956H4.956C5.148 36.716 5.34 36.488 5.508 36.248L4.548 36.08C3.948 36.992 2.784 38.036 1.14 38.768C1.344 38.912 1.608 39.2 1.74 39.404C2.448 39.056 3.072 38.66 3.612 38.24C4.056 38.744 4.584 39.2 5.184 39.62C3.744 40.328 2.064 40.844 0.468 41.12C0.624 41.312 0.816 41.672 0.9 41.9C1.524 41.768 2.16 41.624 2.796 41.432V44.912H3.66V44.516H8.4V44.9H9.3V41.372C9.84 41.516 10.404 41.636 10.968 41.708C11.1 41.456 11.328 41.072 11.532 40.868C9.828 40.652 8.22 40.22 6.888 39.596C7.86 38.96 8.688 38.192 9.276 37.304L8.676 36.92ZM14.988 40.28C15.036 39.776 15.048 39.308 15.048 38.864V37.892H21.132V40.28H14.988ZM15.048 37.064V35.888C17.364 35.6 19.92 35.192 21.66 34.664L20.928 33.992C19.38 34.496 16.572 34.964 14.16 35.228V38.864C14.16 40.568 14.004 42.8 12.48 44.348C12.684 44.456 13.02 44.78 13.164 44.948C14.208 43.904 14.676 42.488 14.892 41.12H21.132V41.756H22.02V37.064H15.048ZM27.456 35.54L27 35.888C27.384 36.26 27.876 36.764 28.116 37.076L28.704 36.584C28.476 36.308 28.032 35.864 27.66 35.54H29.928V34.82H26.832C26.964 34.58 27.072 34.34 27.18 34.1L26.388 33.884C25.98 34.88 25.296 35.84 24.552 36.5C24.744 36.644 25.056 36.944 25.176 37.088C25.608 36.68 26.04 36.14 26.424 35.54H27.456ZM33.228 42.668V43.82H27.456V42.668H33.228ZM32.604 39.44V40.46H27.456V39.44H32.604ZM27.456 41.144H33.48V38.756H26.568V44.924H27.456V44.516H33.228V44.9H34.104V41.972H27.456V41.144ZM29.292 36.56C29.424 36.788 29.544 37.064 29.652 37.316H25.248V39.272H26.112V38.024H34.044V39.272H34.932V37.316H30.564C30.456 37.016 30.252 36.668 30.084 36.392L29.292 36.56ZM31.764 34.832C31.896 34.592 32.004 34.34 32.1 34.088L31.284 33.884C30.984 34.7 30.444 35.48 29.796 35.996C30 36.116 30.324 36.392 30.468 36.524C30.78 36.26 31.068 35.912 31.344 35.54H32.712L32.196 35.96C32.64 36.332 33.192 36.848 33.468 37.184L34.068 36.656C33.792 36.344 33.264 35.888 32.832 35.54H35.412V34.832H31.764ZM40.236 41.588L38.928 42.02V39.044H40.128V38.216H38.928V35.612H40.308V34.772H36.588V35.612H38.076V38.216H36.72V39.044H38.076V42.284C37.464 42.488 36.912 42.656 36.468 42.788L36.672 43.688C37.74 43.34 39.108 42.872 40.392 42.44L40.236 41.588ZM41.712 37.544H43.536V39.068H41.712V37.544ZM41.712 35.288H43.536V36.8H41.712V35.288ZM46.14 36.8H44.304V35.288H46.14V36.8ZM46.14 39.068H44.304V37.544H46.14V39.068ZM44.376 43.712V42.068H47.172V41.252H44.376V39.848H46.992V34.508H40.896V39.848H43.476V41.252H40.752V42.068H43.476V43.712H39.828V44.528H47.556V43.712H44.376Z" fill="#3D556E"/>
</svg>
