<svg width="30" height="30" viewBox="0 0 30 30" fill="none" xmlns="http://www.w3.org/2000/svg">
<path d="M15 20C14.7079 20.0006 14.4249 19.8989 14.2 19.7125L6.69998 13.4625C6.44471 13.2503 6.28418 12.9454 6.2537 12.6149C6.22323 12.2844 6.32531 11.9553 6.53748 11.7C6.74965 11.4447 7.05454 11.2842 7.38507 11.2537C7.71561 11.2233 8.04471 11.3253 8.29998 11.5375L15 17.1375L21.7 11.7375C21.8278 11.6337 21.975 11.5561 22.1329 11.5093C22.2908 11.4626 22.4564 11.4474 22.6202 11.4649C22.784 11.4823 22.9427 11.5319 23.0873 11.6109C23.2318 11.6898 23.3593 11.7966 23.4625 11.925C23.577 12.0535 23.6637 12.2043 23.7171 12.3679C23.7706 12.5315 23.7898 12.7044 23.7733 12.8757C23.7569 13.047 23.7053 13.2131 23.6217 13.3636C23.5381 13.514 23.4243 13.6456 23.2875 13.75L15.7875 19.7875C15.5561 19.9444 15.2789 20.0192 15 20Z" fill="black"/>
</svg>
